<svg width="116" height="52" viewBox="0 0 116 52" fill="none" xmlns="http://www.w3.org/2000/svg">
<g clip-path="url(#clip0_4102_25750)">
<path fill-rule="evenodd" clip-rule="evenodd" d="M38.8431 1.6933C38.7481 1.80662 38.7375 1.9341 38.8008 2.03325C38.8431 2.08991 38.8431 2.08991 38.7903 2.08991C38.7586 2.08991 38.7164 2.06158 38.6847 2.03325C38.6214 1.94826 38.2836 1.96243 38.2203 2.06158C38.1675 2.1324 38.1042 2.11824 38.157 2.03325C38.1781 1.99076 38.1675 1.99076 38.0514 2.00492C37.9775 2.00492 37.7981 2.03325 37.6503 2.03325C37.5026 2.04742 37.2176 2.06158 37.017 2.08991C36.3626 2.14657 36.2993 2.16073 36.0248 2.1749C35.877 2.18906 35.6554 2.20323 35.5287 2.21739C35.3809 2.23156 35.1171 2.21739 34.7793 2.1749C34.3149 2.1324 34.0193 2.11824 31.4544 2.11824C29.8711 2.11824 28.4778 2.1324 28.2773 2.16073C28.0451 2.1749 27.8656 2.1749 27.7917 2.16073C27.6334 2.11824 24.2768 2.11824 23.918 2.16073C23.633 2.18906 23.3058 2.1749 22.2925 2.08991C21.5219 2.01909 21.1103 2.00492 20.7303 2.06158C20.382 2.10408 20.287 2.08991 19.6642 2.03325C19.2842 1.99076 18.8831 1.94826 18.767 1.9341C18.6509 1.91994 16.0121 1.90577 12.9194 1.90577H7.28293L7.20904 1.82078C7.1246 1.72163 7.08238 1.72163 7.04015 1.77829C7.01904 1.80662 6.99793 1.80662 6.95571 1.77829C6.87127 1.70747 6.80794 1.72163 6.77627 1.82078L6.76572 1.89161H5.37243L3.97914 1.90577L3.88414 2.01909C3.83136 2.08991 3.78914 2.1749 3.77859 2.20323C3.76803 2.27405 3.75748 2.27405 3.69415 2.24572C3.65193 2.23156 3.52526 2.21739 3.3986 2.23156C3.15583 2.25989 2.96584 2.33071 2.74418 2.52901C2.61751 2.62817 2.44863 2.84064 2.44863 2.88313C2.44863 2.89729 2.37474 2.93979 2.2903 2.98228C2.06864 3.0956 1.87865 3.26557 1.7942 3.42138C1.76254 3.49221 1.68865 3.59136 1.64643 3.61969C1.5831 3.67635 1.54088 3.76134 1.46699 4.03046C1.38255 4.32792 1.36144 4.39874 1.38255 4.51206C1.39311 4.61121 1.39311 4.66787 1.35088 4.75286C1.30866 4.83785 1.29811 4.92283 1.29811 5.30528C1.29811 5.74438 1.29811 5.75855 1.372 5.88603L1.44588 6.02767L1.42477 6.39595C1.41422 6.59426 1.40366 7.20334 1.40366 7.72743C1.40366 8.66229 1.40366 8.69062 1.45644 8.69062C1.51977 8.69062 1.56199 8.80394 1.55143 8.91725C1.55143 8.98808 1.53032 9.00224 1.47755 9.00224H1.40366V9.52633C1.40366 10.4045 1.43533 11.0561 1.4881 11.1269C1.54088 11.1978 1.54088 11.3394 1.49866 11.3961C1.47755 11.4244 1.47755 11.5094 1.49866 11.7785C1.53032 12.1185 1.51977 13.2233 1.47755 14.0873C1.45644 14.4273 1.46699 14.4273 1.51977 14.4698C1.56199 14.4981 1.59366 14.5264 1.59366 14.5548C1.59366 14.6114 1.53032 14.7106 1.49866 14.7106C1.4881 14.7106 1.46699 14.9089 1.45644 15.1639C1.44588 15.5605 1.44588 15.6313 1.47755 15.6738C1.51977 15.7304 1.51977 15.7304 1.47755 15.8154C1.44588 15.8862 1.43533 16.0562 1.43533 16.9486V17.9968H1.50921C1.55143 17.9968 1.60421 18.0251 1.63588 18.0676L1.69921 18.1384L1.64643 18.2659C1.60421 18.3509 1.57254 18.3934 1.51977 18.4075C1.44588 18.4217 1.44588 18.3934 1.4881 19.3849C1.50921 19.7532 1.50921 20.0648 1.49866 20.079C1.4881 20.079 1.46699 20.1215 1.44588 20.164C1.42477 20.2206 1.43533 20.2489 1.47755 20.2914C1.53032 20.3481 1.53032 20.3623 1.54088 21.4388C1.55143 22.3595 1.54088 22.6428 1.49866 23.3085C1.43533 24.1867 1.43533 24.4133 1.47755 24.4275C1.51977 24.4417 1.56199 31.4248 1.51977 31.694C1.50921 31.7648 1.49866 32.1189 1.4881 32.473C1.47755 33.0254 1.47755 33.2096 1.51977 33.5495C1.56199 33.932 1.56199 34.0311 1.53032 34.5835C1.45644 36.0992 1.42477 37.2182 1.44588 37.5439C1.45644 37.7139 1.45644 37.7706 1.43533 37.7706C1.42477 37.7706 1.39311 37.7989 1.372 37.8272C1.35088 37.8697 1.35088 37.8839 1.41422 37.8981C1.46699 37.9122 1.47755 37.9405 1.46699 38.0114C1.45644 38.0539 1.46699 38.153 1.47755 38.2238C1.4881 38.2947 1.51977 38.7621 1.53032 39.272C1.55143 40.1927 1.55143 40.2069 1.50921 40.2636C1.44588 40.3485 1.44588 40.4477 1.49866 40.5043C1.54088 40.5327 1.54088 40.5893 1.53032 41.0568L1.51977 41.5667L1.59366 41.6517C1.66754 41.7367 1.69921 41.8217 1.64643 41.8217C1.63588 41.8217 1.62532 41.85 1.63588 41.9066C1.64643 41.9775 1.63588 41.9916 1.57254 42.0341C1.50921 42.0766 1.39311 42.3457 1.42477 42.3882C1.43533 42.4024 1.4881 42.4024 1.55143 42.4166C1.61477 42.4166 1.66754 42.4307 1.65699 42.4591C1.65699 42.4732 1.65699 42.5157 1.66754 42.544C1.6781 42.5724 1.6781 42.6149 1.66754 42.629C1.62532 42.6574 1.63588 43.1106 1.6781 43.1531C1.74143 43.224 1.7942 43.1673 1.7942 43.0398C1.7942 42.9832 1.80476 42.9123 1.81531 42.884C1.85754 42.799 1.8892 42.9548 1.8892 43.1531C1.8892 43.3089 1.87865 43.3231 1.82587 43.3231C1.75198 43.3231 1.68865 43.4506 1.68865 43.5922C1.68865 43.6772 1.6781 43.7056 1.63588 43.7339C1.60421 43.748 1.57254 43.7622 1.56199 43.748C1.55143 43.7339 1.54088 43.8189 1.55143 43.9322C1.55143 44.0455 1.55143 44.1871 1.54088 44.258L1.51977 44.3855L1.57254 44.3146C1.6781 44.173 1.87865 44.2863 1.87865 44.4846C1.87865 44.6687 1.70976 44.7679 1.57254 44.6829C1.53032 44.6546 1.53032 44.6687 1.54088 44.7821C1.55143 44.9237 1.47755 45.0937 1.39311 45.0937C1.35088 45.0937 1.34033 45.0795 1.35088 44.9945C1.372 44.8671 1.34033 44.8671 1.26644 44.9804C1.20311 45.0937 1.23478 45.1645 1.35088 45.1645H1.43533V45.4053C1.43533 45.8019 1.4881 46.5668 1.54088 47.0909C1.5831 47.5158 1.60421 47.615 1.74143 48.0541C1.91031 48.5782 1.93142 48.6207 2.10031 48.7765C2.21641 48.8756 2.37474 49.1023 2.45918 49.2581C2.49085 49.3006 2.58585 49.4139 2.67029 49.4847C2.83917 49.6264 2.89195 49.6547 3.16638 49.8247L3.31416 49.9097H4.17969C4.93966 49.9097 5.04522 49.9097 5.08744 49.853C5.12966 49.7963 5.16132 49.7963 5.35132 49.8388C5.83686 49.9238 6.7235 49.9521 7.36737 49.9238C8.15901 49.8672 9.0562 49.7963 9.74229 49.7255C10.2278 49.6689 10.5867 49.6689 13.0144 49.6972C16.1599 49.7255 16.9199 49.7255 17.5109 49.7113C17.7959 49.7113 18.0493 49.7113 18.2709 49.7538C18.7881 49.8388 19.3792 49.9097 19.7909 49.9238L20.1709 49.938L20.2342 49.853C20.2659 49.8105 20.3186 49.768 20.3397 49.768C20.4031 49.768 20.4347 49.6689 20.382 49.6264C20.2975 49.5555 20.4981 49.4281 20.6142 49.4705C20.667 49.4989 20.667 49.4989 20.6142 49.5697C20.5825 49.6122 20.572 49.6689 20.572 49.6972C20.5825 49.7255 20.5508 49.7822 20.5086 49.8247C20.4453 49.8955 20.4453 49.9097 20.4664 49.9522C20.4875 49.9805 20.5086 49.9805 20.5403 49.9522C20.5614 49.9238 20.6036 49.9097 20.6247 49.9097C20.6458 49.9097 20.6986 49.9097 20.7514 49.8955C20.7936 49.8955 20.8253 49.8813 20.8253 49.853C20.7936 49.7963 20.9097 49.6972 21.0153 49.7113C21.0681 49.7113 21.1419 49.6972 21.1842 49.6689C21.2686 49.6122 21.4058 49.4422 21.4269 49.3856C21.4375 49.3572 21.448 49.3572 21.5008 49.3856C21.543 49.4139 21.5747 49.4422 21.5747 49.4564C21.5747 49.4706 21.6169 49.4847 21.6591 49.4847C21.7541 49.4847 21.7647 49.4847 21.7225 49.5839C21.7014 49.6405 21.7014 49.6405 21.7858 49.598C21.8703 49.5555 21.9547 49.5555 21.9547 49.6122C21.9547 49.6264 21.923 49.6689 21.8808 49.7113C21.8386 49.7538 21.8069 49.7963 21.8069 49.8247C21.8069 49.8672 21.7541 49.9097 21.6803 49.9097C21.6275 49.9097 21.4797 49.8247 21.448 49.768C21.4375 49.7538 21.4164 49.7822 21.3953 49.8247C21.3742 49.8672 21.3425 49.9097 21.3108 49.9238C21.2792 49.9238 41.7985 49.9238 66.8989 49.9238H112.54L112.614 49.853C112.666 49.7963 112.709 49.7822 112.793 49.7963C112.846 49.8105 112.888 49.7963 112.888 49.7963C112.888 49.7963 112.909 49.7538 112.951 49.7397C112.983 49.7113 113.025 49.6547 113.036 49.5697C113.057 49.4564 113.078 49.4281 113.162 49.3997C113.215 49.3714 113.31 49.3006 113.384 49.2297C113.447 49.1589 113.521 49.1023 113.542 49.1023C113.606 49.1023 113.732 48.989 113.817 48.8756C113.859 48.8048 113.933 48.7198 113.965 48.6632C114.039 48.564 114.165 48.2666 114.165 48.1957C114.165 48.1816 114.186 48.1532 114.207 48.1532C114.26 48.1532 114.334 48.0966 114.44 47.9691C114.545 47.8558 114.524 47.8133 114.387 47.8841C114.218 47.9691 114.207 47.9691 114.26 47.7991C114.281 47.7141 114.313 47.6292 114.334 47.6008C114.355 47.5725 114.366 47.53 114.355 47.5158C114.345 47.5017 114.355 47.445 114.376 47.3884C114.397 47.3317 114.419 47.1759 114.429 47.0484C114.44 46.9209 114.45 46.7368 114.461 46.6518C114.471 46.5668 114.461 46.4818 114.45 46.4677C114.408 46.4393 114.419 46.3118 114.45 46.3118C114.471 46.3118 114.471 46.2268 114.461 46.0144C114.45 45.8444 114.44 45.3911 114.429 45.0087C114.419 44.4563 114.429 44.258 114.461 44.1022C114.492 43.9322 114.492 42.1474 114.492 29.4843C114.492 21.5379 114.471 14.9939 114.461 14.9231C114.45 14.8522 114.44 14.4131 114.45 13.9315C114.461 12.6567 114.461 11.6227 114.44 9.45551C114.419 7.71326 114.429 7.50079 114.461 7.38748C114.492 7.27416 114.503 7.10418 114.503 6.26847C114.503 5.34777 114.503 5.27695 114.461 5.24862C114.419 5.23446 114.419 5.22029 114.461 5.1778C114.492 5.14947 114.503 5.07864 114.503 4.85201C114.503 4.58288 114.492 4.55455 114.345 4.14378C114.176 3.67635 113.996 3.36473 113.88 3.2939C113.827 3.26557 113.817 3.23724 113.817 3.20892C113.827 3.16642 113.817 3.16642 113.764 3.18059C113.659 3.22308 113.5 3.0956 113.279 2.84064C112.941 2.44403 112.656 2.30238 112.36 2.38737C112.255 2.4157 112.139 2.40153 111.727 2.27405C111.632 2.24572 111.526 2.21739 111.484 2.21739C111.442 2.21739 111.347 2.1749 111.252 2.1324C111.073 2.04742 110.872 2.01909 110.872 2.07575C110.872 2.08991 110.84 2.10408 110.809 2.10408C110.745 2.10408 110.745 2.10408 110.777 2.06158C110.851 1.99076 110.661 1.9341 110.397 1.94826C110.175 1.96243 110.175 1.96243 110.08 2.10408C110.006 2.20323 109.975 2.23156 109.943 2.21739C109.922 2.20323 109.785 2.1324 109.637 2.06158L109.373 1.94826H105.035H100.697L100.654 2.04742C100.633 2.10408 100.623 2.14657 100.633 2.16073C100.644 2.1749 100.633 2.21739 100.612 2.25989L100.602 2.27405V2.18906C100.602 2.1324 100.581 2.07575 100.538 2.03325C100.496 2.00492 100.465 1.96243 100.454 1.9341C100.443 1.90577 91.6298 1.89161 72.8837 1.89161C45.7673 1.89161 45.3345 1.89161 45.3345 1.94826C45.3345 2.03325 45.2923 2.01909 45.1973 1.94826C45.134 1.89161 45.0495 1.89161 44.469 1.89161C44.0468 1.89161 43.8146 1.90577 43.8146 1.91994C43.8146 1.9341 43.7829 1.94826 43.7512 1.94826C43.7196 1.94826 43.6774 1.97659 43.6668 2.00492C43.6351 2.07575 43.3713 2.1324 43.2763 2.07575C43.234 2.04742 43.2024 2.00492 43.1918 1.96243C43.1813 1.89161 43.1602 1.89161 42.9174 1.89161C42.6852 1.89161 42.6535 1.89161 42.6324 1.96243C42.6113 2.00492 42.5796 2.03325 42.548 2.03325C42.5163 2.03325 42.4741 2.00492 42.4424 1.96243C42.4002 1.90577 42.358 1.89161 42.1891 1.89161C42.0519 1.89161 41.9569 1.90577 41.9041 1.94826C41.8302 2.00492 41.8196 2.00492 41.7352 1.94826C41.6719 1.90577 41.5769 1.89161 41.4185 1.89161C41.218 1.89161 41.1863 1.89161 41.1441 1.96243C41.1019 2.03325 41.0913 2.03325 41.0174 1.99076C40.9752 1.96243 40.933 1.9341 40.933 1.91994C40.933 1.87744 40.553 1.89161 40.553 1.9341C40.5319 2.03325 40.2786 2.08991 39.9197 2.07575C39.6136 2.06158 39.5714 2.06158 39.5397 1.99076C39.4975 1.91994 39.4764 1.91994 39.2125 1.94826C39.0542 1.96243 38.917 1.97659 38.9064 1.99076C38.8642 2.01909 38.8853 1.86328 38.9381 1.7358C39.0119 1.55166 38.9592 1.53749 38.8431 1.6933ZM7.21959 1.87744C7.21959 1.87744 7.17737 1.89161 7.13515 1.89161C7.08238 1.89161 7.05071 1.87744 7.05071 1.86328C7.05071 1.84911 7.09293 1.84911 7.13515 1.84911C7.17737 1.86328 7.21959 1.87744 7.21959 1.87744ZM110.629 2.06158C110.703 2.10408 110.703 2.10408 110.671 2.16073C110.619 2.24572 110.524 2.25989 110.429 2.21739C110.355 2.1749 110.334 2.1324 110.386 2.1324C110.397 2.1324 110.408 2.11824 110.397 2.10408C110.386 2.07575 110.429 2.04742 110.513 2.03325C110.534 2.03325 110.587 2.04742 110.629 2.06158ZM37.0381 2.33071C37.1331 2.47236 37.0909 2.71315 36.9748 2.67066C36.922 2.64233 36.8903 2.47236 36.9115 2.33071C36.922 2.20323 36.9537 2.20323 37.0381 2.33071ZM100.074 3.47804C100.074 3.49221 100.053 3.52054 100.032 3.52054C99.9684 3.5347 99.8629 3.49221 99.884 3.44971C99.8945 3.40722 100.085 3.43555 100.074 3.47804ZM1.69921 17.6993L1.74143 17.7985H1.65699C1.61477 17.7985 1.55143 17.7843 1.53032 17.756C1.4881 17.7135 1.4881 17.6993 1.50921 17.6568C1.56199 17.5718 1.64643 17.6002 1.69921 17.6993ZM90.247 46.5101C90.2365 46.5385 90.2365 46.5101 90.2365 46.4677C90.2365 46.4252 90.2365 46.3968 90.247 46.4252C90.2576 46.4535 90.2576 46.496 90.247 46.5101ZM90.0254 46.5243C90.057 46.6518 90.1204 46.7085 90.1837 46.6518C90.2259 46.6235 90.2365 46.6235 90.247 46.6801C90.247 46.7084 90.247 46.7651 90.2365 46.7793C90.1731 46.8643 90.0887 46.8218 89.9937 46.666C89.8776 46.496 89.8776 46.4818 89.9409 46.4677C90.0043 46.4393 90.0043 46.4393 90.0254 46.5243ZM91.5348 46.9209C91.5453 46.9351 91.5137 46.9492 91.4715 46.9492C91.4292 46.9492 91.3976 46.9351 91.3976 46.9209C91.3976 46.9068 91.4292 46.8926 91.4609 46.8926C91.4926 46.8784 91.5348 46.8926 91.5348 46.9209ZM114.229 46.9634C114.229 47.0059 114.218 47.0626 114.207 47.0626C114.197 47.0767 114.186 47.0342 114.186 46.9776C114.186 46.9209 114.197 46.8784 114.207 46.8784C114.218 46.8784 114.229 46.9209 114.229 46.9634ZM113.965 47.7C114.039 47.7566 114.06 47.7991 114.06 47.9124C114.06 48.0399 113.975 48.1391 113.87 48.1391C113.711 48.1391 113.637 47.8699 113.764 47.7283C113.838 47.6575 113.88 47.6433 113.965 47.7ZM90.4054 48.0116C90.4265 48.1674 90.4265 48.2382 90.4054 48.2524C90.3632 48.3091 90.3209 48.2382 90.3104 48.0541C90.2893 47.7425 90.3632 47.7 90.4054 48.0116ZM22.1341 48.8331C22.1658 48.8331 22.1975 48.8615 22.208 48.8756C22.2186 48.904 22.2608 48.9181 22.2925 48.9181C22.4086 48.904 22.4191 48.9181 22.4191 48.989C22.4191 49.1023 22.2714 49.1306 22.1341 49.0456C22.0708 49.0031 22.0602 48.9748 22.0708 48.9323C22.0814 48.8756 22.0708 48.8615 22.018 48.8615C21.9758 48.8615 21.9547 48.8473 21.9653 48.819C21.9758 48.8048 21.9969 48.7907 22.0286 48.8048C22.0602 48.819 22.1025 48.8331 22.1341 48.8331ZM22.0708 49.4564C22.0708 49.4847 22.0602 49.4989 22.0391 49.4989C21.9969 49.4847 21.9864 49.3997 22.0286 49.3997C22.0497 49.3997 22.0708 49.4281 22.0708 49.4564ZM90.4476 49.4564C90.532 49.513 90.532 49.5272 90.4898 49.6122C90.4581 49.683 90.4265 49.6972 90.3526 49.6972C90.2998 49.6972 90.2259 49.6689 90.1837 49.6405C90.1098 49.5839 90.1098 49.5839 90.1415 49.5272C90.1626 49.4989 90.1732 49.4564 90.1626 49.4564C90.152 49.4564 90.1626 49.4422 90.1732 49.4281C90.247 49.3856 90.3526 49.3997 90.4476 49.4564ZM20.9731 49.4847C20.9414 49.5272 20.8992 49.5272 20.8992 49.4705C20.8992 49.4564 20.9203 49.4422 20.9519 49.4422C20.9942 49.4281 21.0047 49.4422 20.9731 49.4847Z" fill="#076936"/>
<path fill-rule="evenodd" clip-rule="evenodd" d="M113.959 2.50056C113.948 2.54306 113.938 2.65637 113.938 2.7272C113.938 2.968 114.075 3.06715 114.138 2.88301C114.149 2.84051 114.18 2.75553 114.201 2.69887C114.222 2.62805 114.254 2.58555 114.307 2.57139C114.349 2.55722 114.381 2.54306 114.381 2.52889C114.381 2.4864 114.212 2.42974 114.096 2.42974C114.001 2.41558 113.98 2.42974 113.959 2.50056Z" fill="#2F2F31"/>
<path fill-rule="evenodd" clip-rule="evenodd" d="M1.04858 36.27C1.02747 36.3267 1.20691 36.3834 1.31246 36.355L1.40746 36.3267L1.33358 36.2842C1.23858 36.2417 1.06969 36.2275 1.04858 36.27Z" fill="#2F2F31"/>
<path fill-rule="evenodd" clip-rule="evenodd" d="M1.13756 37.5728C1.05312 37.6578 1.06368 37.757 1.13756 37.8844C1.21145 37.9836 1.21145 37.9836 1.2009 37.9128C1.17978 37.7994 1.17978 37.672 1.2009 37.6011C1.22201 37.5162 1.2009 37.5162 1.13756 37.5728Z" fill="#2F2F31"/>
<path fill-rule="evenodd" clip-rule="evenodd" d="M2.93771 39.7247C2.85327 39.7814 2.84271 39.8806 2.9166 39.8806C2.96937 39.8806 3.03271 39.7672 3.01159 39.7106C3.00104 39.6964 2.96937 39.7106 2.93771 39.7247Z" fill="#2F2F31"/>
<path fill-rule="evenodd" clip-rule="evenodd" d="M2.98028 41.5527C2.87473 41.6377 2.84306 41.6943 2.88528 41.7651C2.91695 41.8218 3.00139 41.8218 3.0225 41.7793C3.03306 41.7651 3.08583 41.751 3.13861 41.751C3.19138 41.751 3.24416 41.7368 3.25472 41.7085C3.26527 41.6802 3.29694 41.6377 3.3286 41.6235C3.37082 41.5952 3.36027 41.581 3.25472 41.581C3.17027 41.581 3.12805 41.5668 3.1175 41.5244C3.10694 41.4677 3.09639 41.4677 2.98028 41.5527Z" fill="#2F2F31"/>
<path fill-rule="evenodd" clip-rule="evenodd" d="M3.36021 42.1898C3.31799 42.3031 3.29688 42.4164 3.29688 42.4447C3.31799 42.5014 3.46576 42.1756 3.46576 42.0764C3.47631 41.9348 3.43409 41.9773 3.36021 42.1898Z" fill="#2F2F31"/>
<path fill-rule="evenodd" clip-rule="evenodd" d="M1.38131 42.913C1.39187 42.9414 1.40242 42.9839 1.40242 42.998C1.40242 43.0405 1.52909 43.2388 1.56075 43.2388C1.57131 43.2388 1.5502 43.1822 1.50798 43.1113C1.46575 43.0405 1.43409 42.9555 1.43409 42.9414C1.43409 42.9272 1.42353 42.8989 1.40242 42.8847C1.37076 42.8705 1.37076 42.8847 1.38131 42.913Z" fill="#2F2F31"/>
<path fill-rule="evenodd" clip-rule="evenodd" d="M3.25455 44.9383C3.23344 45.0091 3.28622 45.0516 3.40233 45.0516C3.48677 45.0516 3.48677 45.0516 3.44455 44.995C3.41288 44.9666 3.38122 44.9241 3.36011 44.91C3.30733 44.8675 3.26511 44.8675 3.25455 44.9383Z" fill="#2F2F31"/>
<path fill-rule="evenodd" clip-rule="evenodd" d="M4.7356 45.2932C4.66171 45.364 4.6406 45.4207 4.69338 45.4207C4.7356 45.4207 4.82004 45.2932 4.80949 45.2507C4.80949 45.2365 4.77782 45.2507 4.7356 45.2932Z" fill="#2F2F31"/>
<path fill-rule="evenodd" clip-rule="evenodd" d="M1.1934 47.997C1.16174 48.0254 1.14062 48.0679 1.14062 48.0962C1.14062 48.1528 1.23562 48.167 1.25673 48.1103C1.29895 48.0254 1.32006 48.0962 1.32006 48.2945C1.32006 48.422 1.30951 48.507 1.29895 48.4928C1.26729 48.4645 1.21451 48.5494 1.23562 48.5778C1.24618 48.5919 1.27784 48.6061 1.30951 48.6061C1.37284 48.6061 1.39395 48.5211 1.43617 48.2095C1.44673 48.0962 1.44673 48.0537 1.39395 47.997C1.33062 47.9262 1.26729 47.912 1.1934 47.997Z" fill="#2F2F31"/>
<path fill-rule="evenodd" clip-rule="evenodd" d="M4.38863 47.6284C4.35697 47.6992 4.31475 47.77 4.28308 47.7842C4.25141 47.8125 4.25141 47.8408 4.27253 47.8692C4.33586 47.9542 4.47307 47.7275 4.45196 47.5717C4.45196 47.5151 4.44141 47.5292 4.38863 47.6284Z" fill="#2F2F31"/>
<path fill-rule="evenodd" clip-rule="evenodd" d="M21.0234 50.0372C21.0234 50.1222 21.0555 50.1788 21.1302 50.1788C21.1516 50.1788 21.1302 50.0372 21.0982 49.9805C21.0448 49.9239 21.0234 49.938 21.0234 50.0372Z" fill="#2F2F31"/>
<path fill-rule="evenodd" clip-rule="evenodd" d="M64.0731 50.2075C64.0625 50.2358 64.0625 50.2642 64.0625 50.2642C64.0625 50.2642 64.0836 50.2925 64.1153 50.3067C64.1681 50.3633 64.2842 50.2642 64.2419 50.1933C64.1892 50.1367 64.0942 50.1367 64.0731 50.2075Z" fill="#2F2F31"/>
<path fill-rule="evenodd" clip-rule="evenodd" d="M3.85176 45.9861C3.74621 46.0711 3.68288 46.2127 3.66177 46.3969C3.65121 46.5244 3.65121 46.5244 3.70399 46.4819C3.73565 46.4535 3.76732 46.3827 3.78843 46.3119C3.79898 46.2411 3.85176 46.1419 3.88343 46.0853C3.94676 46.0003 3.97842 45.9861 4.09453 45.9861C4.22119 45.9861 4.25286 46.0003 4.37952 46.1419C4.52729 46.2977 4.62229 46.3544 4.55896 46.2269C4.51674 46.1561 4.39008 46.0144 4.31619 45.9578C4.28452 45.9436 4.18953 45.9153 4.09453 45.9153C3.96787 45.9153 3.91509 45.9294 3.85176 45.9861Z" fill="#2F2F31"/>
<path fill-rule="evenodd" clip-rule="evenodd" d="M56.0844 50.4771C56.0422 50.5054 56 50.5479 56 50.5762C56 50.647 56.1055 50.732 56.2005 50.732C56.2744 50.732 56.285 50.732 56.2428 50.6754C56.2217 50.647 56.2005 50.5904 56.2005 50.5479C56.2111 50.4346 56.1794 50.4204 56.0844 50.4771Z" fill="#2F2F31"/>
<path fill-rule="evenodd" clip-rule="evenodd" d="M108.138 45.6609C107.948 45.7176 108.011 45.8592 108.201 45.8167C108.402 45.7742 108.529 45.6609 108.37 45.6609C108.328 45.6609 108.286 45.6609 108.265 45.6467C108.233 45.6467 108.18 45.6467 108.138 45.6609Z" fill="#2F2F31"/>
<path fill-rule="evenodd" clip-rule="evenodd" d="M4.67602 46.7803L4.68657 47.1486L4.80268 47.3611C4.98212 47.6869 5.23544 47.8144 5.41488 47.6727L5.47821 47.6161L5.41488 47.6444C5.30933 47.6869 5.21433 47.6585 5.07711 47.5736C4.90823 47.4602 4.78157 47.2194 4.78157 47.007C4.78157 46.837 4.73935 46.5537 4.69713 46.4829C4.67602 46.4262 4.66546 46.497 4.67602 46.7803Z" fill="#2F2F31"/>
<path fill-rule="evenodd" clip-rule="evenodd" d="M112.006 45.8311C111.964 45.8878 111.922 45.9444 111.922 45.9869C111.922 46.1286 112.165 46.1994 112.26 46.1002C112.302 46.0577 112.302 46.0436 112.207 46.0152C112.112 45.9728 112.101 45.9728 112.112 45.8594C112.144 45.7036 112.122 45.7036 112.006 45.8311Z" fill="#2F2F31"/>
<path fill-rule="evenodd" clip-rule="evenodd" d="M98.9385 47.2751C98.8646 47.3034 98.7485 47.3742 98.6851 47.4309C98.5585 47.5301 98.379 47.785 98.4001 47.8417C98.4107 47.8842 98.569 47.9408 98.6007 47.9125C98.6112 47.8983 98.6112 47.87 98.6112 47.8417C98.5796 47.7425 98.8435 47.5301 99.1073 47.4309L99.2657 47.3742L99.4134 47.4734C99.4979 47.5301 99.614 47.5867 99.6668 47.6009C99.7512 47.615 99.7934 47.6575 99.899 47.7992C100.047 48.0116 100.068 48.0966 100.005 48.2241C99.9834 48.2808 99.9729 48.3374 99.9729 48.3516C99.994 48.4083 100.121 48.3941 100.173 48.3374C100.216 48.2949 100.216 48.2949 100.163 48.2808C100.11 48.2808 100.11 48.2666 100.131 48.2383C100.195 48.1533 100.152 47.87 100.026 47.6575C99.9412 47.5017 99.8673 47.4451 99.6879 47.4026C99.6246 47.3884 99.5084 47.3317 99.4451 47.2751C99.3184 47.1901 99.1496 47.1759 98.9385 47.2751Z" fill="#2F2F31"/>
<path fill-rule="evenodd" clip-rule="evenodd" d="M23.6155 47.1763C23.6049 47.1905 23.5627 47.1905 23.5099 47.1905C23.4149 47.1905 23.3516 47.2613 23.3832 47.3179C23.4149 47.3746 23.4993 47.3604 23.6155 47.2613C23.6788 47.2188 23.721 47.1621 23.721 47.1621C23.7316 47.148 23.6366 47.148 23.6155 47.1763Z" fill="#2F2F31"/>
<path fill-rule="evenodd" clip-rule="evenodd" d="M53.6606 45.079C53.629 45.1498 53.6184 45.2206 53.629 45.3198C53.6501 45.4898 53.7345 45.6881 53.7978 45.6881C53.8612 45.6881 53.8612 45.6597 53.7978 45.4898C53.7556 45.3765 53.7451 45.3198 53.7662 45.164C53.7767 44.9374 53.7345 44.909 53.6606 45.079Z" fill="#2F2F31"/>
<path fill-rule="evenodd" clip-rule="evenodd" d="M21.9548 47.8975C21.9442 47.9116 21.9126 47.9541 21.8809 47.9683L21.8281 47.9966H21.8809C21.9337 47.9966 22.0076 47.9116 21.9865 47.8833C21.9759 47.8691 21.9653 47.8833 21.9548 47.8975Z" fill="#2F2F31"/>
<path fill-rule="evenodd" clip-rule="evenodd" d="M36.7693 45.9162C36.6954 46.1003 36.6954 46.1003 36.7482 46.157C36.8538 46.2703 36.9277 46.157 36.9065 45.902C36.896 45.7179 36.8538 45.7179 36.7693 45.9162Z" fill="#2F2F31"/>
<path fill-rule="evenodd" clip-rule="evenodd" d="M61.1961 45.2061C61.1433 45.3477 61.1856 45.6027 61.2384 45.5035C61.2807 45.4327 61.3018 45.1353 61.2595 45.1353C61.2384 45.1494 61.2173 45.1777 61.1961 45.2061Z" fill="#2F2F31"/>
<path fill-rule="evenodd" clip-rule="evenodd" d="M98.1272 48.126C97.9267 48.211 97.9161 48.2252 98.0111 48.2252C98.0744 48.2252 98.1589 48.1827 98.2539 48.126C98.4228 47.9985 98.3911 47.9985 98.1272 48.126Z" fill="#2F2F31"/>
<path fill-rule="evenodd" clip-rule="evenodd" d="M13.8625 5.65979C13.8414 5.70228 13.8309 5.8156 13.8203 5.97141C13.8203 6.19804 13.8203 6.22637 13.8731 6.29719C13.9681 6.42468 13.9998 6.33969 14.0103 5.95724L14.0209 5.63146L13.9575 5.61729C13.9259 5.60313 13.8836 5.63146 13.8625 5.65979Z" fill="#2F2F31"/>
<path fill-rule="evenodd" clip-rule="evenodd" d="M14.4148 5.77288C14.3726 5.78704 14.2987 5.99951 14.2776 6.14116C14.267 6.21198 14.2776 6.26864 14.2987 6.31113C14.3515 6.39612 14.4042 6.33946 14.457 6.12699C14.4781 6.042 14.5203 5.94285 14.552 5.90036C14.6048 5.8437 14.6048 5.82954 14.5626 5.80121C14.4992 5.74455 14.4676 5.73038 14.4148 5.77288Z" fill="#2F2F31"/>
<path fill-rule="evenodd" clip-rule="evenodd" d="M14.6886 5.95656C14.6147 6.08405 14.678 6.25402 14.773 6.21153C14.8258 6.1832 14.8258 5.95656 14.773 5.9424C14.7202 5.89991 14.7202 5.89991 14.6886 5.95656Z" fill="#2F2F31"/>
<path fill-rule="evenodd" clip-rule="evenodd" d="M9.59554 6.08449C9.57443 6.14115 9.58499 6.16948 9.65887 6.26863C9.79609 6.45277 9.9122 6.42445 10.0283 6.16948C10.0916 6.02784 10.0811 6.02784 9.93331 6.12699L9.8172 6.19781L9.75387 6.11282C9.66943 5.99951 9.62721 5.98534 9.59554 6.08449Z" fill="#2F2F31"/>
<path fill-rule="evenodd" clip-rule="evenodd" d="M10.8999 6.24038C10.8893 6.25455 10.8154 6.26871 10.7415 6.26871C10.6043 6.26871 10.5938 6.26871 10.5938 6.3537C10.5938 6.42452 10.6043 6.43869 10.6676 6.45285C10.7521 6.45285 10.9315 6.33953 10.9526 6.26871C10.9632 6.22622 10.921 6.19789 10.8999 6.24038Z" fill="#2F2F31"/>
<path fill-rule="evenodd" clip-rule="evenodd" d="M81.1838 3.67671C81.1627 3.73337 81.226 3.80419 81.2999 3.80419C81.4266 3.81836 81.4371 3.80419 81.3632 3.7192C81.2788 3.62005 81.2155 3.60589 81.1838 3.67671Z" fill="#2F2F31"/>
<path fill-rule="evenodd" clip-rule="evenodd" d="M75.6239 3.87446C75.5922 3.91695 75.55 3.97361 75.5289 4.0161C75.4761 4.14358 75.5922 4.08693 75.6767 3.94528C75.7822 3.78947 75.74 3.74697 75.6239 3.87446Z" fill="#2F2F31"/>
<path fill-rule="evenodd" clip-rule="evenodd" d="M79.6957 3.84683C79.6746 3.87516 79.6641 3.94598 79.6641 4.01681C79.6641 4.15845 79.7168 4.21511 79.7802 4.14429C79.8224 4.10179 79.8329 4.11596 79.8435 4.2576C79.8541 4.31426 79.8541 4.31426 79.8963 4.2576C79.9385 4.20095 79.9385 4.17262 79.8752 4.03097C79.8013 3.8185 79.7485 3.76184 79.6957 3.84683Z" fill="#2F2F31"/>
<path fill-rule="evenodd" clip-rule="evenodd" d="M80.3502 3.9174C80.2236 4.00239 80.1708 4.01655 80.1813 3.98822C80.2025 3.9174 80.1602 3.9174 80.1075 3.98822C80.0019 4.12987 80.2025 4.14403 80.3713 4.01655L80.498 3.93156L80.5508 4.00239C80.6141 4.08737 80.7408 4.08737 80.8886 3.98822L81.0152 3.90323L80.8252 3.9174C80.7197 3.9174 80.6458 3.9174 80.6563 3.90323C80.688 3.86074 80.6247 3.78992 80.5824 3.78992C80.5508 3.80408 80.4558 3.86074 80.3502 3.9174Z" fill="#2F2F31"/>
<path fill-rule="evenodd" clip-rule="evenodd" d="M76.4297 3.84691C76.4297 3.8752 76.5352 3.88934 76.5458 3.86105C76.5563 3.84691 76.5352 3.83276 76.493 3.83276C76.4614 3.83276 76.4297 3.84691 76.4297 3.84691Z" fill="#2F2F31"/>
<path fill-rule="evenodd" clip-rule="evenodd" d="M74.2569 4.00173C74.183 4.08672 74.2252 4.08672 74.3096 4.00173C74.3413 3.95924 74.3624 3.93091 74.3413 3.93091C74.3307 3.93091 74.2885 3.9734 74.2569 4.00173Z" fill="#2F2F31"/>
<path fill-rule="evenodd" clip-rule="evenodd" d="M78.8926 4.00308C78.9032 4.01744 78.9349 4.0318 78.9665 4.0318C78.9982 4.0318 79.0299 4.01744 79.0404 4.00308C79.051 3.98872 79.0193 3.97437 78.9665 3.97437C78.9138 3.97437 78.8821 3.98872 78.8926 4.00308Z" fill="#2F2F31"/>
<path fill-rule="evenodd" clip-rule="evenodd" d="M75.0547 4.11473C75.0547 4.12887 75.0758 4.14302 75.1075 4.14302C75.1392 4.14302 75.1603 4.14302 75.1603 4.12887C75.1603 4.12887 75.1392 4.11473 75.1075 4.10059C75.0758 4.08644 75.0547 4.10059 75.0547 4.11473Z" fill="#2F2F31"/>
<path fill-rule="evenodd" clip-rule="evenodd" d="M45.3564 4.17339C45.2614 4.24422 45.1875 4.31504 45.1875 4.35753C45.1875 4.3717 45.2086 4.40003 45.2403 4.42836C45.3036 4.47085 45.4514 4.38586 45.4303 4.31504C45.4303 4.28671 45.4303 4.24422 45.4514 4.23005C45.5569 4.10257 45.483 4.07424 45.3564 4.17339Z" fill="#2F2F31"/>
<path fill-rule="evenodd" clip-rule="evenodd" d="M76.5395 4.20069C76.4445 4.32817 76.5289 4.54064 76.7083 4.65396C76.8667 4.75311 76.9406 4.73895 77.1411 4.55481C77.2889 4.41316 77.3205 4.38483 77.3416 4.44149C77.3733 4.49815 77.4155 4.51231 77.3944 4.45566C77.3839 4.44149 77.3944 4.38483 77.405 4.34234C77.4261 4.27152 77.4155 4.25735 77.3839 4.21486C77.3311 4.17236 77.2678 4.20069 77.2467 4.25735C77.2361 4.28568 77.1517 4.37067 77.0567 4.45566C76.8983 4.5973 76.8772 4.61147 76.8033 4.58314C76.6872 4.52648 76.6133 4.41316 76.6133 4.29984C76.6133 4.22902 76.6239 4.20069 76.6661 4.20069C76.6978 4.20069 76.7294 4.18653 76.7294 4.17236C76.7611 4.1157 76.5817 4.14403 76.5395 4.20069Z" fill="#2F2F31"/>
<path fill-rule="evenodd" clip-rule="evenodd" d="M77.9486 4.30007C77.9063 4.45588 78.2863 4.82416 78.508 4.82416C78.5713 4.82416 78.6558 4.83832 78.6874 4.86665C78.7296 4.89498 78.7613 4.89498 78.8141 4.86665C78.8774 4.83832 78.8774 4.83832 78.793 4.83832C78.7508 4.83832 78.7085 4.82416 78.7085 4.80999C78.7085 4.79583 78.7508 4.79583 78.8035 4.79583C78.8563 4.80999 78.9513 4.79583 79.0252 4.7675C79.4474 4.64002 79.553 4.61169 79.5318 4.59752C79.5213 4.59752 79.3735 4.61169 79.2152 4.64002C78.8035 4.725 78.7402 4.71084 78.6135 4.59752C78.4974 4.49837 78.4235 4.47004 78.413 4.5267C78.4024 4.56919 78.1597 4.45588 78.1491 4.39922C78.1491 4.37089 78.1491 4.35672 78.1702 4.35672C78.1913 4.35672 78.1702 4.32839 78.128 4.30007C78.0224 4.22924 77.9697 4.22924 77.9486 4.30007ZM78.413 4.62585C78.5819 4.725 78.603 4.78166 78.4869 4.78166C78.4235 4.78166 78.3708 4.75333 78.2969 4.66835C78.1913 4.5267 78.2335 4.51253 78.413 4.62585Z" fill="#2F2F31"/>
<path fill-rule="evenodd" clip-rule="evenodd" d="M80.8876 4.35626C80.8243 4.39876 80.8032 4.42709 80.8349 4.42709C80.8665 4.42709 80.9193 4.39876 80.9615 4.35626C81.0565 4.25711 81.0249 4.27128 80.8876 4.35626Z" fill="#2F2F31"/>
<path fill-rule="evenodd" clip-rule="evenodd" d="M109.908 7.5144C109.898 7.54273 109.929 7.62772 109.993 7.71271C110.045 7.79769 110.119 7.91101 110.151 7.98183C110.193 8.06682 110.246 8.12348 110.32 8.16597C110.383 8.1943 110.436 8.20847 110.447 8.20847C110.457 8.1943 110.447 8.13764 110.436 8.08099C110.415 7.996 110.394 7.96767 110.341 7.93934C110.288 7.92517 110.235 7.85435 110.204 7.76936C110.109 7.57106 110.035 7.47191 109.972 7.47191C109.95 7.45774 109.919 7.48607 109.908 7.5144Z" fill="#2F2F31"/>
<path fill-rule="evenodd" clip-rule="evenodd" d="M2.64873 4.61212C2.54318 4.68295 2.53262 4.76793 2.62762 4.7821C2.66984 4.7821 2.69095 4.7821 2.69095 4.75377C2.69095 4.69711 2.76484 4.62629 2.82817 4.62629C2.84928 4.62629 2.87039 4.64045 2.87039 4.66878C2.87039 4.68295 2.88094 4.72544 2.90205 4.7396C2.96539 4.79626 3.32426 4.68295 3.28204 4.62629C3.27149 4.62629 3.15538 4.59796 3.00761 4.58379C2.77539 4.55546 2.72262 4.55546 2.64873 4.61212Z" fill="#2F2F31"/>
<path fill-rule="evenodd" clip-rule="evenodd" d="M110.585 8.09645C110.553 8.18144 110.638 8.37975 110.722 8.37975C110.764 8.37975 110.849 8.2381 110.817 8.20977C110.807 8.20977 110.796 8.18144 110.796 8.16728C110.796 8.11062 110.722 8.03979 110.669 8.03979C110.627 8.03979 110.595 8.06812 110.585 8.09645Z" fill="#2F2F31"/>
<path fill-rule="evenodd" clip-rule="evenodd" d="M2.2034 5.71693C2.11896 5.74526 2.08729 5.83025 2.15062 5.87274C2.19284 5.88691 2.31951 5.81608 2.36173 5.7311C2.39339 5.6886 2.38284 5.67444 2.34062 5.67444C2.31951 5.67444 2.25617 5.6886 2.2034 5.71693Z" fill="#2F2F31"/>
<path fill-rule="evenodd" clip-rule="evenodd" d="M5.49646 1.28287C5.41202 1.29707 5.03203 1.31127 4.54649 1.29707L3.74429 1.28287L3.57541 1.35387C3.38541 1.43908 3.17431 1.51009 2.98432 1.53849C2.87876 1.55269 2.8471 1.5811 2.74155 1.70891C2.63599 1.83672 2.60433 1.86512 2.53044 1.86512C2.41433 1.86512 2.32989 1.92193 2.19267 2.09235C2.12934 2.16335 2.06601 2.23436 2.05546 2.23436C2.02379 2.23436 1.42214 3.01543 1.37992 3.11484C1.36937 3.15745 1.34826 3.21425 1.34826 3.25686C1.34826 3.31366 1.30603 3.39887 1.23215 3.49828C1.11604 3.6687 1.08437 3.78231 1.08437 4.05214C1.08437 4.12314 1.05271 4.17995 0.989378 4.27936C0.904936 4.39297 0.894381 4.43557 0.87327 4.62019C0.862715 4.7622 0.85216 14.3623 0.85216 25.9791C0.85216 43.0917 0.85216 47.1533 0.883825 47.338C0.904936 47.48 0.810018 47.4761 0.852239 47.5613C0.89446 47.6466 0.841122 48.0961 0.851678 48.1955C0.841122 48.1529 0.872788 48.2949 0.851678 48.1955C0.851678 48.1955 0.798771 48.7586 0.851547 48.8296C0.904324 48.9148 1.09493 49.2025 1.1266 49.2877C1.16882 49.4439 1.34199 49.6577 1.71142 50.0979C2.09141 50.5524 2.02494 50.6895 2.14105 50.7321C2.06716 50.6327 2.22549 50.7605 2.14105 50.7321H2.57068H3.00031V51.3662H57.9924L112.358 51.0221H112.985C112.711 51.0505 113.238 50.8801 112.985 51.0221L113.55 50.7321L113.698 50.6627C113.772 50.5775 114.274 50.7321 114.11 50.415C114.205 50.415 113.999 50.4246 114.274 50.0979C114.432 49.9133 114.745 49.5108 114.787 49.4256C114.829 49.3403 115.08 48.9006 115.133 48.8296C115.218 48.716 115.081 48.8102 115.102 48.6824C115.113 48.5687 115.123 48.4457 115.196 48.3463C115.334 48.1616 115.216 47.9912 115.237 47.7498C115.247 47.6362 115.081 47.48 115.102 47.2811C115.144 46.8267 115.144 46.4007 115.102 46.2018C115.07 46.074 115.123 43.7898 115.133 26.6345C115.144 3.37265 115.186 4.83703 115.133 4.4394C115.101 4.12697 115.329 3.32787 115.234 3.20005C115.16 3.10064 115.165 2.69317 115.133 2.53696C115.112 2.40915 114.746 2.62217 114.703 2.53696C114.577 2.33814 114.305 1.90281 114.274 1.90281C114.263 1.90281 113.936 1.45328 113.884 1.38228C113.82 1.31127 113.876 1.26917 113.844 1.26917C114.085 0.67271 113.488 1.36741 113.415 1.268C113.277 1.09759 113.196 1.26733 112.985 1.26733C112.901 1.26733 112.735 0.704186 112.555 0.633179H112.126L59.2859 1.29707C30.1218 1.29707 6.11922 1.28287 5.95034 1.26866C5.78145 1.26866 5.57035 1.26866 5.49646 1.28287ZM45.1208 2.36217C45.1419 2.37637 45.1947 2.37637 45.2369 2.36217C45.2791 2.34797 51.0423 2.33377 58.7054 2.33377H72.1L72.0472 2.40478C72.0261 2.44738 71.9733 2.50419 71.9416 2.51839C71.8994 2.54679 71.8677 2.60359 71.8677 2.6604L71.8572 2.75981L71.9627 2.632C72.0261 2.56099 72.1 2.46158 72.1316 2.41898L72.195 2.33377H73.2083H74.2216L74.2638 2.43318C74.3166 2.54679 74.4116 2.60359 74.4643 2.56099C74.4854 2.53259 74.5171 2.53259 74.5277 2.54679C74.5488 2.56099 74.5488 2.53259 74.5382 2.44738L74.5171 2.33377H75.0554H75.5937L75.5515 2.41898C75.5093 2.51839 75.5304 2.6178 75.5832 2.60359C75.6043 2.60359 75.6254 2.54679 75.6465 2.46158L75.6676 2.33377H92.5349C101.813 2.33377 109.465 2.31957 109.56 2.31957C109.655 2.31957 110.236 2.33377 110.869 2.34797C112.009 2.36217 112.02 2.37637 112.157 2.44738C112.305 2.51839 112.579 2.58939 112.748 2.58939C112.833 2.58939 112.864 2.6178 112.959 2.74561C113.044 2.84502 113.107 2.90182 113.17 2.91603C113.265 2.94443 113.445 3.12905 113.445 3.20005C113.445 3.25686 113.698 3.56929 113.74 3.56929C113.761 3.56929 113.814 3.61189 113.856 3.6687C113.92 3.73971 113.951 3.81071 113.983 3.98113C114.015 4.15155 114.046 4.22255 114.12 4.32196C114.194 4.42137 114.215 4.47818 114.236 4.60599C114.268 4.90422 114.3 6.32436 114.279 6.65099C114.268 6.83561 114.258 14.7174 114.247 26.5187C114.247 45.6054 114.247 46.074 114.194 46.1592C114.152 46.2302 114.152 46.2444 114.194 46.3013C114.215 46.3297 114.247 46.4291 114.258 46.5143C114.279 46.6563 114.279 46.6847 114.226 46.7415L114.173 46.8125L114.226 46.8693C114.268 46.9119 114.279 46.9403 114.258 47.0823L114.247 47.2527L114.141 47.2385C114.057 47.2243 114.036 47.2385 114.025 47.2669C114.004 47.338 114.057 47.3948 114.141 47.4232C114.205 47.4374 114.215 47.4516 114.215 47.5226C114.215 47.6078 114.131 47.7498 114.078 47.7498C114.046 47.7498 113.973 47.9486 113.951 48.119C113.941 48.1758 113.899 48.2752 113.846 48.3463C113.793 48.4031 113.73 48.5309 113.698 48.6303C113.635 48.7865 113.624 48.8007 113.55 48.7865C113.476 48.7723 113.466 48.7865 113.466 48.9001C113.466 48.9711 113.35 49.0705 113.234 49.0989C113.16 49.1131 113.096 49.1699 113.012 49.2693L112.885 49.4256L112.643 49.454C112.505 49.4682 112.368 49.4966 112.326 49.5108C112.273 49.5392 112.263 49.5392 112.263 49.5108C112.273 49.4824 112.305 49.4682 112.358 49.454C112.495 49.4114 112.495 49.3688 112.358 49.3546C112.284 49.3403 112.21 49.3261 112.189 49.3119C112.136 49.2835 111.798 49.4256 111.798 49.4824C111.798 49.5392 111.851 49.5676 111.872 49.5392C111.883 49.525 111.935 49.4824 111.988 49.4398C112.073 49.3829 112.094 49.383 112.157 49.4114C112.22 49.454 112.22 49.454 112.168 49.5108C112.136 49.5392 112.115 49.5818 112.115 49.6102C112.115 49.6386 112.052 49.6812 111.978 49.7096C111.84 49.7664 111.503 49.7664 105.581 49.7664C99.6385 49.7664 99.3219 49.7664 99.2586 49.7096C99.2163 49.6812 99.1952 49.6244 99.1952 49.5818C99.1952 49.4966 99.153 49.4682 99.0897 49.5108C99.0369 49.5392 99.0369 49.6528 99.0897 49.7238C99.1213 49.7806 99.1213 49.7806 98.9102 49.7806C98.7519 49.7806 98.6991 49.7664 98.7308 49.7522C98.8047 49.6954 98.773 49.6812 98.6464 49.667C98.5197 49.667 98.4458 49.7096 98.5091 49.7522C98.5302 49.7664 97.9181 49.7806 97.1581 49.7806C95.9548 49.7806 95.7753 49.7806 95.7648 49.738C95.7542 49.7096 95.7226 49.6954 95.6381 49.6954C95.5326 49.6954 95.5326 49.6954 95.617 49.7096C95.6698 49.7096 95.7014 49.738 95.6909 49.7522C95.6698 49.7806 95.0892 49.7948 95.0892 49.7522C95.0892 49.7238 95.2792 49.6812 95.4376 49.6812C95.5114 49.6812 95.522 49.6812 95.4798 49.6386C95.4587 49.6244 95.332 49.596 95.2159 49.596L94.9943 49.5818L95.0048 49.6812L95.0259 49.7806H93.2632H91.5005L91.3844 49.7096C91.321 49.667 91.226 49.6386 91.1838 49.6386C91.1416 49.6386 91.0466 49.667 90.9833 49.7096L90.8671 49.7806H89.8644H88.8617L88.5661 49.6528C88.3445 49.5534 88.2706 49.4966 88.2495 49.454C88.2178 49.3545 88.1333 49.3688 88.1333 49.4682C88.1333 49.5534 88.2072 49.6102 88.4606 49.7238L88.6294 49.7948H78.2325C70.3267 49.7948 67.8251 49.7948 67.804 49.7664C67.7829 49.738 67.7512 49.738 67.6773 49.7664C67.5506 49.809 67.3818 49.809 67.2762 49.7664C67.2129 49.738 67.1918 49.738 67.1812 49.7664C67.1812 49.7948 66.9068 49.809 66.189 49.809H65.2074V49.6244C65.2074 49.4824 65.1968 49.4398 65.1652 49.4114C65.1124 49.3688 65.0913 49.4398 65.0913 49.667V49.809H64.7641H64.4369V49.7238C64.4369 49.6812 64.458 49.525 64.4791 49.3972C64.5002 49.2693 64.5107 49.1557 64.5107 49.1415C64.458 49.0847 64.3207 49.4256 64.2996 49.6386C64.2891 49.809 64.2891 49.809 64.2046 49.809C64.1624 49.809 64.1308 49.7948 64.1308 49.7806C64.1519 49.738 64.0358 49.6528 63.983 49.6812C63.9408 49.7096 63.9302 49.7238 63.9724 49.7806C64.0146 49.8374 32.7501 49.8374 32.5178 49.7806C32.4017 49.7522 32.3595 49.738 32.349 49.6812C32.3278 49.596 32.2856 49.6102 32.254 49.7096L32.2223 49.809H28.813C25.4458 49.809 25.4036 49.809 25.4353 49.7522C25.4669 49.667 25.467 49.6244 25.4142 49.6244C25.3825 49.6244 25.3614 49.6102 25.3614 49.596C25.3614 49.5818 25.3508 49.5676 25.3297 49.5676C25.2981 49.5676 25.2347 49.738 25.2558 49.7806C25.2664 49.7948 24.2637 49.809 22.8809 49.809H20.4849L20.5482 49.738C20.6432 49.6386 20.6115 49.6386 20.4849 49.7096L20.3793 49.7806H12.2096L4.05039 49.7948L3.94484 49.667L3.83929 49.5392L3.52263 49.4966L3.20598 49.454L3.07931 49.3119C3.01598 49.2267 2.96321 49.1557 2.96321 49.1415C2.96321 49.1273 2.95265 49.1273 2.93154 49.1273C2.86821 49.1557 2.81543 49.0563 2.81543 48.9143C2.81543 48.8291 2.80488 48.7865 2.79432 48.8007C2.78377 48.8149 2.77321 48.8717 2.77321 48.9427C2.77321 49.0421 2.76266 49.0563 2.73099 49.0563C2.68877 49.0563 2.50933 48.8433 2.50933 48.7723C2.50933 48.7581 2.49878 48.7439 2.48822 48.7581C2.446 48.7865 2.25601 48.5451 2.20323 48.3747C2.17156 48.2752 2.09768 48.1474 2.0449 48.0764C1.96046 47.9628 1.89713 47.7498 1.89713 47.5794C1.89713 47.551 1.85491 47.4374 1.81269 47.338C1.75991 47.2243 1.71769 47.0681 1.70713 46.9687C1.66491 46.6421 1.65436 8.59658 1.68602 5.51488V4.97523L1.79158 4.83321C1.88657 4.7054 1.89713 4.677 1.90768 4.47818C1.92879 4.27936 1.92879 4.26516 2.0449 4.10894C2.15045 3.98113 2.17156 3.92432 2.18212 3.81071C2.19267 3.6829 2.21378 3.6545 2.34045 3.49828C2.41433 3.39887 2.48822 3.31366 2.48822 3.29946C2.48822 3.28526 2.57266 3.18585 2.66766 3.07224C2.81543 2.90182 2.83654 2.88762 2.9421 2.88762C3.03709 2.88762 3.0582 2.87342 3.16376 2.73141C3.26931 2.60359 3.30097 2.57519 3.40653 2.56099C3.59652 2.53259 3.7654 2.47578 3.88151 2.41898C3.97651 2.36217 4.09262 2.36217 4.90537 2.34797C5.40146 2.33377 5.81312 2.31957 5.81312 2.31957C5.83423 2.30537 45.0891 2.33377 45.1208 2.36217ZM74.4116 2.40478C74.4432 2.50419 74.4432 2.54679 74.4116 2.54679C74.3904 2.54679 74.3166 2.39057 74.3166 2.34797C74.3271 2.30537 74.3904 2.34797 74.4116 2.40478ZM91.2682 49.7238C91.2471 49.7238 91.2049 49.7238 91.1838 49.7238C91.1627 49.7096 91.1838 49.7096 91.226 49.7096C91.2683 49.7096 91.2894 49.7096 91.2682 49.7238Z" fill="#EDEAE0"/>
<path fill-rule="evenodd" clip-rule="evenodd" d="M4.71414 0.0149297C4.62843 0.0298593 4.24273 0.044789 3.74988 0.0298593L2.93562 0.0149297L2.7642 0.089578C2.57135 0.179156 2.35707 0.253804 2.16422 0.283664C2.05708 0.298593 2.02494 0.328452 1.9178 0.462819C1.81066 0.597186 1.77852 0.627046 1.70352 0.627046C1.58567 0.627046 1.49995 0.686764 1.36067 0.86592C1.29639 0.940569 1.2321 1.01522 1.22139 1.01522C1.18925 1.01522 0.578554 1.83635 0.535698 1.94086C0.524984 1.98564 0.503556 2.04536 0.503556 2.09015C0.503556 2.14987 0.4607 2.23945 0.385702 2.34396C0.267849 2.52311 0.235707 2.64255 0.235707 2.92621C0.235707 3.00086 0.203565 3.06058 0.139281 3.16509C0.0535699 3.28453 0.0428558 3.32931 0.0214279 3.5234C0.010714 3.6727 0 13.7651 0 25.9776C0 43.9678 1.92059e-08 48.2377 0.0321419 48.4318C0.0535698 48.5811 0.0964256 48.7453 0.139281 48.8349C0.182137 48.9245 0.224993 49.0887 0.235707 49.1932C0.257135 49.2977 0.267849 49.4172 0.278563 49.462C0.289277 49.5067 0.342847 49.6113 0.396416 49.6859C0.449986 49.7755 0.524984 49.9248 0.557126 50.0144C0.599982 50.1786 0.664266 50.2682 1.03925 50.731C1.42496 51.2087 1.47853 51.2684 1.59638 51.3132C1.68209 51.3431 1.75709 51.3879 1.83209 51.4924L1.93923 51.6417L2.21779 51.6716L2.49635 51.7014L2.60349 51.8507L2.72134 52H57.9411L113.161 51.9851L113.343 51.8806C113.6 51.7313 113.643 51.7163 113.922 51.6865L114.168 51.6566L114.296 51.4924C114.371 51.4028 114.446 51.3282 114.468 51.3282C114.564 51.3282 114.682 51.2237 114.961 50.8803C115.121 50.6862 115.282 50.4473 115.325 50.3577C115.368 50.2682 115.443 50.1338 115.496 50.0591C115.582 49.9397 115.604 49.88 115.625 49.7456C115.636 49.6262 115.668 49.5515 115.743 49.447C115.882 49.2529 115.893 49.2082 115.914 48.9544C115.925 48.8349 115.946 48.5811 115.968 48.3721C116.011 47.8943 116.011 47.4465 115.968 47.2374C115.936 47.1031 115.936 44.5501 115.946 26.5151C115.957 2.06029 115.968 3.50847 115.914 3.09044C115.882 2.76199 115.882 2.74706 115.786 2.61269C115.711 2.50818 115.679 2.43353 115.646 2.26931C115.625 2.13494 115.571 2.0155 115.529 1.92593C115.4 1.71691 114.779 0.89578 114.746 0.89578C114.736 0.89578 114.671 0.836061 114.618 0.761413C114.554 0.686764 114.479 0.627046 114.446 0.627046C114.414 0.627046 114.339 0.567327 114.264 0.462819C114.125 0.283663 114.039 0.238875 113.825 0.238875C113.739 0.238875 113.589 0.194086 113.407 0.119437L113.129 0L59.3125 0.0298593C29.7098 0.0298593 5.34626 0.0149297 5.17484 0C5.00342 0 4.78914 0 4.71414 0.0149297ZM45.1111 1.26829C45.0683 1.28322 45.1325 1.28322 45.1111 1.26829C45.154 1.25336 51.0809 1.26829 58.8593 1.26829L72.3192 1.11972L72.2656 1.19437C72.2442 1.23916 72.1906 1.29888 72.1585 1.31381C72.1156 1.34367 72.0835 1.40339 72.0835 1.46311L72.0728 1.56761L72.1799 1.43325C72.2442 1.3586 72.3192 1.25409 72.3514 1.2093L72.4156 1.11972L73.4348 1.31381L74.4727 1.11972L74.5156 1.22423C74.5691 1.34367 74.6656 1.40339 74.7191 1.3586C74.7406 1.32874 74.7727 1.32874 74.7834 1.34367C74.8048 1.3586 74.8048 1.32874 74.7941 1.23916L74.7727 1.11972H75.3191H75.8655L75.8227 1.2093C75.7798 1.31381 75.8012 1.41832 75.8548 1.40339C75.8762 1.40339 75.8977 1.34367 75.9191 1.25409L75.9405 1.11972H93.0614C102.479 1.11972 110.247 1.10479 110.343 1.10479C110.439 1.10479 111.029 1.11972 111.672 1.13465C112.829 1.14958 112.839 1.16451 112.979 1.23916C113.129 1.31381 113.407 1.38846 113.579 1.38846C113.664 1.38846 113.697 1.41832 113.793 1.55268C113.879 1.65719 113.943 1.71691 114.007 1.73184C114.104 1.7617 114.286 1.95579 114.286 2.03043C114.286 2.09015 114.543 2.4186 114.586 2.4186C114.607 2.4186 114.661 2.46339 114.704 2.52311C114.768 2.59776 114.8 2.67241 114.832 2.85156C114.864 3.03072 114.896 3.10537 114.971 3.20988C115.046 3.31438 115.068 3.3741 115.089 3.50847C115.121 3.82199 115.154 5.31496 115.132 5.65834C115.121 5.85243 115.111 14.1384 115.1 26.5449C115.1 46.6104 115.1 47.1031 115.046 47.1927C115.004 47.2673 115.004 47.2822 115.046 47.342C115.068 47.3718 115.1 47.4763 115.111 47.5659C115.132 47.7152 115.132 47.7451 115.079 47.8048L115.025 47.8794L115.079 47.9391C115.121 47.9839 115.132 48.0138 115.111 48.1631L115.1 48.3422L114.993 48.3273C114.907 48.3124 114.886 48.3273 114.875 48.3572C114.854 48.4318 114.907 48.4915 114.993 48.5214C115.057 48.5363 115.068 48.5513 115.068 48.6259C115.068 48.7155 114.982 48.8648 114.929 48.8648C114.896 48.8648 114.821 49.0738 114.8 49.2529C114.789 49.3127 114.746 49.4172 114.693 49.4918C114.639 49.5515 114.575 49.6859 114.543 49.7904C114.479 49.9546 114.468 49.9696 114.393 49.9546C114.318 49.9397 114.307 49.9546 114.307 50.0741C114.307 50.1487 114.189 50.2532 114.071 50.2831C113.996 50.298 113.932 50.3577 113.846 50.4622L113.718 50.6265L113.472 50.6563C113.332 50.6713 113.193 50.7011 113.15 50.7161C113.097 50.7459 113.086 50.7459 113.086 50.7161C113.097 50.6862 113.129 50.6713 113.182 50.6563C113.322 50.6115 113.322 50.5668 113.182 50.5518C113.107 50.5369 113.032 50.522 113.011 50.507C112.957 50.4772 112.614 50.6265 112.614 50.6862C112.614 50.7459 112.668 50.7758 112.689 50.7459C112.7 50.731 112.754 50.6862 112.807 50.6414C112.893 50.5817 112.914 50.5817 112.979 50.6115C113.043 50.6563 113.043 50.6563 112.989 50.7161C112.957 50.7459 112.936 50.7907 112.936 50.8206C112.936 50.8504 112.872 50.8952 112.797 50.9251C112.657 50.9848 112.314 50.9848 106.304 50.9848C100.272 50.9848 99.9505 50.9848 99.8862 50.9251C99.8434 50.8952 99.8219 50.8355 99.8219 50.7907C99.8219 50.7011 99.7791 50.6713 99.7148 50.7161C99.6612 50.7459 99.6612 50.8654 99.7148 50.94C99.7469 50.9997 99.7469 50.9997 99.5327 50.9997C99.372 50.9997 99.3184 50.9848 99.3505 50.9699C99.4255 50.9101 99.3934 50.8952 99.2648 50.8803C99.1362 50.8803 99.0612 50.9251 99.1255 50.9699C99.147 50.9848 98.5255 50.9997 97.7541 50.9997C96.5328 50.9997 96.3506 50.9997 96.3399 50.9549C96.3292 50.9251 96.297 50.9101 96.2113 50.9101C96.1042 50.9101 96.1042 50.9101 96.1899 50.9251C96.2435 50.9251 96.2756 50.9549 96.2649 50.9699C96.2435 50.9997 95.6542 51.0146 95.6542 50.9699C95.6542 50.94 95.847 50.8952 96.0078 50.8952C96.0828 50.8952 96.0935 50.8952 96.0506 50.8504C96.0292 50.8355 95.9006 50.8056 95.7828 50.8056L95.5578 50.7907L95.5685 50.8952L95.5899 50.9997H93.8007H92.0115L91.8936 50.9251C91.8293 50.8803 91.7329 50.8504 91.69 50.8504C91.6472 50.8504 91.5508 50.8803 91.4865 50.9251L91.3686 50.9997H90.3508H89.333L89.033 50.8654C88.808 50.7608 88.733 50.7011 88.7116 50.6563C88.6794 50.5518 88.5937 50.5668 88.5937 50.6713C88.5937 50.7608 88.6687 50.8206 88.9258 50.94L89.0973 51.0146H78.544C70.5193 51.0146 67.9801 51.0146 67.9586 50.9848C67.9372 50.9549 67.9051 50.9549 67.8301 50.9848C67.7015 51.0296 67.5301 51.0296 67.4229 50.9848C67.3586 50.9549 67.3372 50.9549 67.3265 50.9848C67.3265 51.0146 67.0479 51.0296 66.3194 51.0296H65.323V50.8355C65.323 50.6862 65.3123 50.6414 65.2801 50.6115C65.2266 50.5668 65.2051 50.6414 65.2051 50.8803V51.0296H64.873H64.5409V50.94C64.5409 50.8952 64.5623 50.731 64.5837 50.5966C64.6052 50.4622 64.6159 50.3428 64.6159 50.3279C64.5623 50.2682 64.423 50.6265 64.4016 50.8504C64.3909 51.0296 64.3909 51.0296 64.3052 51.0296C64.2623 51.0296 64.2302 51.0146 64.2302 50.9997C64.2516 50.9549 64.1337 50.8653 64.0802 50.8952C64.0373 50.9251 64.0266 50.94 64.0695 50.9997C64.1123 51.0594 32.3776 51.0594 32.1419 50.9997C32.024 50.9699 31.9812 50.9549 31.9704 50.8952C31.949 50.8056 31.9062 50.8206 31.874 50.9251L31.8419 51.0296H28.3813C24.9635 51.0296 24.9207 51.0296 24.9528 50.9699C24.9849 50.8803 24.9849 50.8355 24.9314 50.8355C24.8992 50.8355 24.8778 50.8206 24.8778 50.8056C24.8778 50.7907 24.8671 50.7758 24.8457 50.7758C24.8135 50.7758 24.7492 50.9549 24.7707 50.9997C24.7814 51.0146 23.7636 51.0296 22.36 51.0296H19.928L19.9922 50.9549C20.0887 50.8504 20.0565 50.8504 19.928 50.9251L19.8208 50.9997H11.5282L3.24633 51.0146L3.13919 50.8803L3.03205 50.7459L2.71063 50.7011L2.38921 50.6563L2.26064 50.507C2.19636 50.4175 2.14279 50.3428 2.14279 50.3279C2.14279 50.313 2.13208 50.313 2.11065 50.313C2.04637 50.3428 1.9928 50.2383 1.9928 50.089C1.9928 49.9994 1.98208 49.9546 1.97137 49.9696C1.96065 49.9845 1.94994 50.0442 1.94994 50.1189C1.94994 50.2234 1.93923 50.2383 1.90708 50.2383C1.86423 50.2383 1.68209 50.0144 1.68209 49.9397C1.68209 49.9248 1.67138 49.9099 1.66066 49.9248C1.61781 49.9546 1.42496 49.7008 1.37139 49.5217C1.33924 49.4172 1.26425 49.2828 1.21068 49.2082C1.12497 49.0887 1.06068 48.8648 1.06068 48.6856C1.06068 48.6558 1.01783 48.5363 0.97497 48.4318C0.9214 48.3124 0.878544 48.1481 0.86783 48.0436C0.824975 47.7003 0.814261 7.7037 0.846403 4.46397L0.859259 4.43902L1.28889 3.80488C1.27818 4.01389 1.38531 3.67051 1.28889 3.80488C1.31032 3.59586 1.17104 3.33496 1.28889 3.17073C1.39603 3.03636 1.28889 3.17073 1.58034 2.98593C1.59106 2.85156 1.58995 2.70081 1.71852 2.53659C1.79352 2.43208 1.66066 2.14987 1.66066 2.13494C1.66066 2.12001 1.74638 2.0155 1.8428 1.89607C1.9928 1.71691 2.01422 1.70198 2.12136 1.70198C2.21779 1.70198 2.23922 1.68705 2.34636 1.53775C2.4535 1.40339 2.48564 1.37353 2.59278 1.3586C2.78563 1.32874 2.81679 1.59747 2.93465 1.53775C3.03107 1.47804 3.47132 1.28322 4.2963 1.26829C4.79985 1.25336 5.15556 1.26829 5.15556 1.26829C5.15556 1.26829 45.079 1.23843 45.1111 1.26829ZM74.6656 1.19437C74.6977 1.29888 74.6977 1.34367 74.6656 1.34367C74.6441 1.34367 74.5691 1.17944 74.5691 1.13465C74.5799 1.08987 74.6441 1.13465 74.6656 1.19437ZM91.7757 50.94C91.7543 50.94 91.7115 50.94 91.69 50.94C91.6686 50.9251 91.69 50.9251 91.7329 50.9251C91.7757 50.9251 91.7972 50.9251 91.7757 50.94Z" fill="#2F2F31"/>
<path d="M8.5 7.05C8.80376 7.05 9.05 6.80376 9.05 6.5C9.05 6.19624 8.80376 5.95 8.5 5.95C8.19624 5.95 7.95 6.19624 7.95 6.5C7.95 6.80376 8.19624 7.05 8.5 7.05Z" fill="#C6C4BD" stroke="#2F2F31" stroke-width="0.1"/>
<path d="M107.5 7.05C107.804 7.05 108.05 6.80376 108.05 6.5C108.05 6.19624 107.804 5.95 107.5 5.95C107.196 5.95 106.95 6.19624 106.95 6.5C106.95 6.80376 107.196 7.05 107.5 7.05Z" fill="#C6C4BD" stroke="#2F2F31" stroke-width="0.1"/>
<path d="M8.5 46.05C8.80376 46.05 9.05 45.8038 9.05 45.5C9.05 45.1962 8.80376 44.95 8.5 44.95C8.19624 44.95 7.95 45.1962 7.95 45.5C7.95 45.8038 8.19624 46.05 8.5 46.05Z" fill="#C6C4BD" stroke="#2F2F31" stroke-width="0.1"/>
<path d="M107.5 46.05C107.804 46.05 108.05 45.8038 108.05 45.5C108.05 45.1962 107.804 44.95 107.5 44.95C107.196 44.95 106.95 45.1962 106.95 45.5C106.95 45.8038 107.196 46.05 107.5 46.05Z" fill="#C6C4BD" stroke="#2F2F31" stroke-width="0.1"/>
</g>
<defs>
<clipPath id="clip0_4102_25750">
<rect width="116" height="52" fill="white"/>
</clipPath>
</defs>
</svg>
